<svg xmlns="http://www.w3.org/2000/svg" height="317.907" width="486.293"><g fill="#231f20"><path d="M170.972 7.892c1.553 2.007 60.361 81.927 64.592 124.659 4.595 46.458-66.197 174.245-66.197 174.245s-5.746 13.55-11.034 10.723c-3.413-1.827 59.332-126.196 57.006-180.507-2.528-58.975-40.599-106.948-53.212-126.217 0 0-6.338-9.155-2.875-10.499 3.45-1.347 10.173 5.58 11.72 7.596M314.865 7.892c-1.553 2.007-60.361 81.927-64.592 124.659-4.594 46.458 66.203 174.245 66.203 174.245s5.747 13.55 11.027 10.723c3.421-1.827-59.331-126.196-56.999-180.507 2.528-58.975 40.6-106.948 53.205-126.217 0 0 6.34-9.155 2.878-10.499-3.454-1.347-10.175 5.58-11.722 7.596M294.836 281.59a345.696 345.696 0 01-51.685 3.874c-17.67 0-34.902-1.344-51.499-3.84l25.981-56.53c8.35.565 16.864.854 25.518.854 9.202 0 16.869.17 25.741-.47l25.944 56.113"/><path d="M325.284-.003c93.455 19.376 161.007 71.136 161.007 131.264 0 61.247-69.271 122.898-164.543 145.338l-23.353-54.642c81.089-12.41 141.092-52.765 141.092-106.393 0-47.908-47.892-89.127-116.587-107.415l2.384-8.152M163.184 8.192C94.607 26.522 46.815 67.709 46.815 115.564c0 52.732 60.046 93.225 139.944 106.34l-22.482 54.417C68.705 253.647 0 192.25 0 131.261 0 71.295 67.313 19.492 160.399-.003l2.785 8.195M243.604 58.64c-3.195 0-23.955-31.83-23.724-34.23.23-2.389 19.339-10.394 23.724-15.28 4.38 4.886 23.49 12.891 23.715 15.28.229 2.4-20.524 34.23-23.715 34.23zm33.9-38.381c-8.767-4.288-29.119-13.338-33.9-18.671-4.775 5.333-25.132 14.383-33.904 18.67-1.483.727-2.4 2.125-2.4 2.125 19.083 18.597 36.304 57.148 36.304 57.148s17.221-38.551 36.305-57.148c0 0-.917-1.398-2.405-2.124"/></g></svg>